# xmcd
#
# Track frame offsets:
#	150
#	14530
#	30990
#	45937
#	62725
#	72875
#	85597
#	98327
#	113325
#	127045
#	139242
#	155647
#	171652
#	184640
#
# Disc length: 2638 seconds
#
# Revision: 1
# Processed by: cddbd v1.5PL3 Copyright (c) Steve Scherf et al.
# Submitted via: EasyCDDAExtractor 5.0.6
#
DISCID=ad0a4c0e
DTITLE=余天 - 20年來最暢銷國語金曲系列2
DYEAR=1900
DGENRE=POP
TTITLE0=又是黃昏
TTITLE1=一個陌生的女孩
TTITLE2=真心呼喚
TTITLE3=相逢夕陽下
TTITLE4=天涯海角只愛他
TTITLE5=望著山望著海
TTITLE6=珍重道別離
TTITLE7=汪洋中的一條船
TTITLE8=相見不如懷念
TTITLE9=小詩
TTITLE10=藍藍的天藍藍的海
TTITLE11=夢中的回憶
TTITLE12=秋風吹來一片情
TTITLE13=天涯芳草
EXTD=
EXTT0=
EXTT1=
EXTT2=
EXTT3=
EXTT4=
EXTT5=
EXTT6=
EXTT7=
EXTT8=
EXTT9=
EXTT10=
EXTT11=
EXTT12=
EXTT13=
PLAYORDER=
